<svg width="145" height="81" viewBox="0 0 145 81" fill="none" xmlns="http://www.w3.org/2000/svg">
<path d="M17.5793 8.252C17.5793 10.34 16.8593 12.08 15.4193 13.472C14.0033 14.84 11.8313 15.524 8.90325 15.524H4.07925V26H0.80325V0.907999H8.90325C11.7353 0.907999 13.8833 1.592 15.3473 2.96C16.8353 4.328 17.5793 6.092 17.5793 8.252ZM8.90325 12.824C10.7273 12.824 12.0713 12.428 12.9353 11.636C13.7993 10.844 14.2313 9.716 14.2313 8.252C14.2313 5.156 12.4553 3.608 8.90325 3.608H4.07925V12.824H8.90325ZM24.9269 0.907999V26H21.6509V0.907999H24.9269ZM33.2823 23.156H45.5223V26H29.3943V23.408L41.5623 3.752H29.5383V0.907999H45.4503V3.5L33.2823 23.156ZM52.7588 23.156H64.9988V26H48.8708V23.408L61.0388 3.752H49.0148V0.907999H64.9268V3.5L52.7588 23.156ZM84.2954 20.42H73.3514L71.3354 26H67.8794L76.9514 1.052H80.7314L89.7674 26H86.3114L84.2954 20.42ZM83.3594 17.756L78.8234 5.084L74.2874 17.756H83.3594ZM106.933 26L100.957 15.74H96.9972V26H93.7212V0.907999H101.821C103.717 0.907999 105.313 1.232 106.609 1.88C107.929 2.528 108.913 3.404 109.561 4.508C110.209 5.612 110.533 6.872 110.533 8.288C110.533 10.016 110.029 11.54 109.021 12.86C108.037 14.18 106.549 15.056 104.557 15.488L110.857 26H106.933ZM96.9972 13.112H101.821C103.597 13.112 104.929 12.68 105.817 11.816C106.705 10.928 107.149 9.752 107.149 8.288C107.149 6.8 106.705 5.648 105.817 4.832C104.953 4.016 103.621 3.608 101.821 3.608H96.9972V13.112ZM118.9 0.907999V26H115.624V0.907999H118.9ZM139.315 20.42H128.371L126.355 26H122.899L131.971 1.052H135.751L144.787 26H141.331L139.315 20.42ZM138.379 17.756L133.843 5.084L129.307 17.756H138.379ZM32.1161 63.08H28.4441L31.9001 54.908H34.2401L32.1161 63.08ZM37.9481 63.08H34.2761L37.7321 54.908H40.0721L37.9481 63.08ZM56.6639 54.908V73.448C56.6639 75.512 56.0279 77.168 54.7559 78.416C53.4839 79.64 51.8039 80.252 49.7159 80.252C47.6039 80.252 45.9119 79.628 44.6399 78.38C43.3679 77.108 42.7319 75.38 42.7319 73.196H46.0079C46.0319 74.42 46.3439 75.416 46.9439 76.184C47.5679 76.952 48.4919 77.336 49.7159 77.336C50.9399 77.336 51.8519 76.976 52.4519 76.256C53.0519 75.512 53.3519 74.576 53.3519 73.448V54.908H56.6639ZM77.9497 74.42H67.0057L64.9897 80H61.5337L70.6057 55.052H74.3857L83.4217 80H79.9657L77.9497 74.42ZM77.0137 71.756L72.4777 59.084L67.9417 71.756H77.0137ZM101.56 54.908V57.572H90.6515V66.032H99.5075V68.696H90.6515V80H87.3755V54.908H101.56ZM106.02 54.908H109.656L106.2 63.08H103.896L106.02 54.908ZM111.852 54.908H115.488L112.032 63.08H109.692L111.852 54.908Z" fill="#F80C02"/>
</svg>