<svg width="60" height="60" viewBox="0 0 60 60" fill="none" xmlns="http://www.w3.org/2000/svg">
<path d="M5.48435 17.7422C5.22356 17.3362 5.13151 16.8445 5.22782 16.3718C5.32412 15.899 5.60117 15.4825 5.99998 15.2109C12.9979 10.1962 21.3908 7.49954 30 7.49954C38.6091 7.49954 47.0021 10.1962 54 15.2109C54.3988 15.4825 54.6758 15.899 54.7721 16.3718C54.8684 16.8445 54.7764 17.3362 54.5156 17.7422L31.5703 53.7656C31.4039 54.032 31.1724 54.2517 30.8977 54.4039C30.623 54.5562 30.3141 54.6361 30 54.6361C29.6859 54.6361 29.3769 54.5562 29.1022 54.4039C28.8275 54.2517 28.5961 54.032 28.4297 53.7656L5.48435 17.7422Z" stroke="white" stroke-width="2" stroke-linecap="round" stroke-linejoin="round"/>
<path d="M8.60156 22.6406C14.6374 17.6976 22.1984 14.9967 30 14.9967C37.8016 14.9967 45.3626 17.6976 51.3984 22.6406" stroke="white" stroke-width="2" stroke-linecap="round" stroke-linejoin="round"/>
<path d="M38.5077 42.8672C37.5252 42.5874 36.6216 42.082 35.8688 41.3914C35.116 40.7008 34.5348 39.8439 34.1715 38.8891C33.8083 37.9342 33.673 36.9078 33.7764 35.8914C33.8798 34.8751 34.219 33.8969 34.7671 33.0348C35.3152 32.1726 36.0571 31.4504 36.9335 30.9255C37.81 30.4006 38.7969 30.0876 39.8156 30.0114C40.8344 29.9352 41.8569 30.0979 42.8017 30.4865C43.7465 30.8752 44.5875 31.479 45.2577 32.25" stroke="white" stroke-width="2" stroke-linecap="round" stroke-linejoin="round"/>
<path d="M13.5704 30.4219C14.0053 29.3102 14.7351 28.3382 15.6813 27.6105C16.6275 26.8828 17.7543 26.427 18.9403 26.2921C20.1263 26.1571 21.3267 26.3483 22.4122 26.8449C23.4976 27.3415 24.4271 28.1247 25.1005 29.1103C25.7739 30.0959 26.1658 31.2465 26.2338 32.4383C26.3019 33.63 26.0436 34.8177 25.4868 35.8736C24.9301 36.9294 24.0958 37.8135 23.074 38.4304C22.0521 39.0474 20.8813 39.374 19.6876 39.375H19.2657" stroke="white" stroke-width="2" stroke-linecap="round" stroke-linejoin="round"/>
</svg>