<svg width="64" height="64" viewBox="0 0 64 64" fill="none" xmlns="http://www.w3.org/2000/svg">
<path d="M5.85001 18.925C5.57182 18.492 5.47365 17.9675 5.57637 17.4632C5.6791 16.9589 5.97462 16.5146 6.40001 16.225C13.8645 10.876 22.8169 7.99951 32 7.99951C41.1831 7.99951 50.1356 10.876 57.6 16.225C58.0254 16.5146 58.3209 16.9589 58.4236 17.4632C58.5264 17.9675 58.4282 18.492 58.15 18.925L33.675 57.35C33.4975 57.6341 33.2506 57.8684 32.9576 58.0309C32.6646 58.1933 32.335 58.2785 32 58.2785C31.665 58.2785 31.3354 58.1933 31.0424 58.0309C30.7494 57.8684 30.5025 57.6341 30.325 57.35L5.85001 18.925Z" stroke="#FA8B28" stroke-width="2" stroke-linecap="round" stroke-linejoin="round"/>
<path d="M9.1748 24.15C15.6131 18.8774 23.6781 15.9965 31.9998 15.9965C40.3215 15.9965 48.3866 18.8774 54.8248 24.15" stroke="#FA8B28" stroke-width="2" stroke-linecap="round" stroke-linejoin="round"/>
<path d="M41.0749 45.725C40.0269 45.4265 39.063 44.8875 38.26 44.1508C37.457 43.4142 36.8371 42.5002 36.4497 41.4817C36.0622 40.4632 35.9178 39.3683 36.0281 38.2842C36.1384 37.2001 36.5003 36.1567 37.0849 35.2371C37.6696 34.3175 38.4609 33.5471 39.3957 32.9872C40.3306 32.4273 41.3833 32.0935 42.47 32.0122C43.5567 31.9309 44.6473 32.1044 45.6551 32.519C46.6629 32.9335 47.56 33.5776 48.2749 34.4" stroke="#44EE44" stroke-width="2" stroke-linecap="round" stroke-linejoin="round"/>
<path d="M14.4751 32.45C14.9389 31.2642 15.7174 30.2274 16.7267 29.4512C17.736 28.675 18.9379 28.1888 20.203 28.0449C21.4681 27.901 22.7484 28.1048 23.9063 28.6345C25.0641 29.1642 26.0556 29.9997 26.7739 31.051C27.4922 32.1023 27.9101 33.3296 27.9827 34.6008C28.0553 35.872 27.7798 37.1389 27.1859 38.2652C26.592 39.3914 25.7022 40.3343 24.6122 40.9925C23.5222 41.6506 22.2734 41.9989 21.0001 42H20.5501" stroke="#44EE44" stroke-width="2" stroke-linecap="round" stroke-linejoin="round"/>
</svg>
