<svg width="32" height="32" viewBox="0 0 60 60" fill="none" xmlns="http://www.w3.org/2000/svg">
<path d="M10.6405 41.4846C7.84885 36.7746 6.87236 31.2076 7.89437 25.8287C8.91638 20.4497 11.8666 15.6288 16.1912 12.2709C20.5158 8.91308 25.9173 7.24919 31.3817 7.59164C36.8462 7.9341 41.9977 10.2593 45.8692 14.1309C49.7407 18.0024 52.066 23.1539 52.4084 28.6183C52.7509 34.0828 51.087 39.4843 47.7291 43.8089C44.3713 48.1335 39.5503 51.0837 34.1714 52.1057C28.7925 53.1277 23.2255 52.1512 18.5155 49.3596V49.3596L10.7343 51.5627C10.4155 51.6559 10.0775 51.6617 9.75566 51.5794C9.43386 51.4971 9.14013 51.3297 8.90526 51.0948C8.67039 50.8599 8.50303 50.5662 8.42071 50.2444C8.33839 49.9226 8.34416 49.5846 8.4374 49.2658L10.6405 41.4846Z" stroke="black" stroke-width="2" stroke-linecap="round" stroke-linejoin="round"/>
<path d="M30 32.8125C31.5533 32.8125 32.8125 31.5533 32.8125 30C32.8125 28.4467 31.5533 27.1875 30 27.1875C28.4467 27.1875 27.1875 28.4467 27.1875 30C27.1875 31.5533 28.4467 32.8125 30 32.8125Z" fill="black"/>
<path d="M18.75 32.8125C20.3033 32.8125 21.5625 31.5533 21.5625 30C21.5625 28.4467 20.3033 27.1875 18.75 27.1875C17.1967 27.1875 15.9375 28.4467 15.9375 30C15.9375 31.5533 17.1967 32.8125 18.75 32.8125Z" fill="black"/>
<path d="M41.25 32.8125C42.8033 32.8125 44.0625 31.5533 44.0625 30C44.0625 28.4467 42.8033 27.1875 41.25 27.1875C39.6967 27.1875 38.4375 28.4467 38.4375 30C38.4375 31.5533 39.6967 32.8125 41.25 32.8125Z" fill="black"/>
</svg>
