<svg width="235" height="81" viewBox="0 0 235 81" fill="none" xmlns="http://www.w3.org/2000/svg">
<path d="M14.0231 26L8.04706 15.74H4.08706V26H0.811063V0.907999H8.91106C10.8071 0.907999 12.4031 1.232 13.6991 1.88C15.0191 2.528 16.0031 3.404 16.6511 4.508C17.2991 5.612 17.6231 6.872 17.6231 8.288C17.6231 10.016 17.1191 11.54 16.1111 12.86C15.1271 14.18 13.6391 15.056 11.6471 15.488L17.9471 26H14.0231ZM4.08706 13.112H8.91106C10.6871 13.112 12.0191 12.68 12.9071 11.816C13.7951 10.928 14.2391 9.752 14.2391 8.288C14.2391 6.8 13.7951 5.648 12.9071 4.832C12.0431 4.016 10.7111 3.608 8.91106 3.608H4.08706V13.112ZM25.9894 3.572V11.96H35.1334V14.66H25.9894V23.3H36.2134V26H22.7134V0.872H36.2134V3.572H25.9894ZM49.1264 26.252C47.4704 26.252 45.9824 25.964 44.6624 25.388C43.3664 24.788 42.3464 23.972 41.6024 22.94C40.8584 21.884 40.4744 20.672 40.4504 19.304H43.9424C44.0624 20.48 44.5424 21.476 45.3824 22.292C46.2464 23.084 47.4944 23.48 49.1264 23.48C50.6864 23.48 51.9104 23.096 52.7984 22.328C53.7104 21.536 54.1664 20.528 54.1664 19.304C54.1664 18.344 53.9024 17.564 53.3744 16.964C52.8464 16.364 52.1864 15.908 51.3944 15.596C50.6024 15.284 49.5344 14.948 48.1904 14.588C46.5344 14.156 45.2024 13.724 44.1944 13.292C43.2104 12.86 42.3584 12.188 41.6384 11.276C40.9424 10.34 40.5944 9.092 40.5944 7.532C40.5944 6.164 40.9424 4.952 41.6384 3.896C42.3344 2.84 43.3064 2.024 44.5544 1.448C45.8264 0.871999 47.2784 0.583999 48.9104 0.583999C51.2624 0.583999 53.1824 1.172 54.6704 2.348C56.1824 3.524 57.0344 5.084 57.2264 7.028H53.6264C53.5064 6.068 53.0024 5.228 52.1144 4.508C51.2264 3.764 50.0504 3.392 48.5864 3.392C47.2184 3.392 46.1024 3.752 45.2384 4.472C44.3744 5.168 43.9424 6.152 43.9424 7.424C43.9424 8.336 44.1944 9.08 44.6984 9.656C45.2264 10.232 45.8624 10.676 46.6064 10.988C47.3744 11.276 48.4424 11.612 49.8104 11.996C51.4664 12.452 52.7984 12.908 53.8064 13.364C54.8144 13.796 55.6784 14.48 56.3984 15.416C57.1184 16.328 57.4784 17.576 57.4784 19.16C57.4784 20.384 57.1544 21.536 56.5064 22.616C55.8584 23.696 54.8984 24.572 53.6264 25.244C52.3544 25.916 50.8544 26.252 49.1264 26.252ZM77.7433 0.907999V3.572H70.9033V26H67.6273V3.572H60.7513V0.907999H77.7433ZM96.6079 20.42H85.6639L83.6479 26H80.1919L89.2639 1.052H93.0439L102.08 26H98.6239L96.6079 20.42ZM95.6719 17.756L91.1359 5.084L86.5999 17.756H95.6719ZM109.238 0.907999V16.784C109.238 19.016 109.778 20.672 110.858 21.752C111.962 22.832 113.486 23.372 115.43 23.372C117.35 23.372 118.85 22.832 119.93 21.752C121.034 20.672 121.586 19.016 121.586 16.784V0.907999H124.862V16.748C124.862 18.836 124.442 20.6 123.602 22.04C122.762 23.456 121.622 24.512 120.182 25.208C118.766 25.904 117.17 26.252 115.394 26.252C113.618 26.252 112.01 25.904 110.57 25.208C109.154 24.512 108.026 23.456 107.186 22.04C106.37 20.6 105.962 18.836 105.962 16.748V0.907999H109.238ZM143.539 26L137.563 15.74H133.603V26H130.327V0.907999H138.427C140.323 0.907999 141.919 1.232 143.215 1.88C144.535 2.528 145.519 3.404 146.167 4.508C146.815 5.612 147.139 6.872 147.139 8.288C147.139 10.016 146.635 11.54 145.627 12.86C144.643 14.18 143.155 15.056 141.163 15.488L147.463 26H143.539ZM133.603 13.112H138.427C140.203 13.112 141.535 12.68 142.423 11.816C143.311 10.928 143.755 9.752 143.755 8.288C143.755 6.8 143.311 5.648 142.423 4.832C141.559 4.016 140.227 3.608 138.427 3.608H133.603V13.112ZM167.061 20.42H156.117L154.101 26H150.645L159.717 1.052H163.497L172.533 26H169.077L167.061 20.42ZM166.125 17.756L161.589 5.084L157.053 17.756H166.125ZM196.215 26H192.939L179.763 6.02V26H176.487V0.872H179.763L192.939 20.816V0.872H196.215V26ZM217.243 0.907999V3.572H210.403V26H207.127V3.572H200.251V0.907999H217.243ZM224.552 3.572V11.96H233.696V14.66H224.552V23.3H234.776V26H221.276V0.872H234.776V3.572H224.552ZM28.5098 67.076C29.4218 67.22 30.2498 67.592 30.9938 68.192C31.7618 68.792 32.3618 69.536 32.7938 70.424C33.2498 71.312 33.4778 72.26 33.4778 73.268C33.4778 74.54 33.1538 75.692 32.5058 76.724C31.8578 77.732 30.9098 78.536 29.6618 79.136C28.4378 79.712 26.9858 80 25.3058 80H15.9458V54.908H24.9458C26.6498 54.908 28.1018 55.196 29.3018 55.772C30.5018 56.324 31.4018 57.08 32.0018 58.04C32.6018 59 32.9018 60.08 32.9018 61.28C32.9018 62.768 32.4938 64.004 31.6778 64.988C30.8858 65.948 29.8298 66.644 28.5098 67.076ZM19.2218 65.744H24.7298C26.2658 65.744 27.4538 65.384 28.2938 64.664C29.1338 63.944 29.5538 62.948 29.5538 61.676C29.5538 60.404 29.1338 59.408 28.2938 58.688C27.4538 57.968 26.2418 57.608 24.6578 57.608H19.2218V65.744ZM25.0178 77.3C26.6498 77.3 27.9218 76.916 28.8338 76.148C29.7458 75.38 30.2018 74.312 30.2018 72.944C30.2018 71.552 29.7218 70.46 28.7618 69.668C27.8018 68.852 26.5178 68.444 24.9098 68.444H19.2218V77.3H25.0178ZM49.4 80.252C47.072 80.252 44.948 79.712 43.028 78.632C41.108 77.528 39.584 76.004 38.456 74.06C37.352 72.092 36.8 69.884 36.8 67.436C36.8 64.988 37.352 62.792 38.456 60.848C39.584 58.88 41.108 57.356 43.028 56.276C44.948 55.172 47.072 54.62 49.4 54.62C51.752 54.62 53.888 55.172 55.808 56.276C57.728 57.356 59.24 58.868 60.344 60.812C61.448 62.756 62 64.964 62 67.436C62 69.908 61.448 72.116 60.344 74.06C59.24 76.004 57.728 77.528 55.808 78.632C53.888 79.712 51.752 80.252 49.4 80.252ZM49.4 77.408C51.152 77.408 52.724 77 54.116 76.184C55.532 75.368 56.636 74.204 57.428 72.692C58.244 71.18 58.652 69.428 58.652 67.436C58.652 65.42 58.244 63.668 57.428 62.18C56.636 60.668 55.544 59.504 54.152 58.688C52.76 57.872 51.176 57.464 49.4 57.464C47.624 57.464 46.04 57.872 44.648 58.688C43.256 59.504 42.152 60.668 41.336 62.18C40.544 63.668 40.148 65.42 40.148 67.436C40.148 69.428 40.544 71.18 41.336 72.692C42.152 74.204 43.256 75.368 44.648 76.184C46.064 77 47.648 77.408 49.4 77.408ZM91.7767 55.088V80H88.5007V61.424L80.2207 80H77.9167L69.6007 61.388V80H66.3247V55.088H69.8527L79.0687 75.68L88.2847 55.088H91.7767ZM114.886 80.252C113.23 80.252 111.742 79.964 110.422 79.388C109.126 78.788 108.106 77.972 107.362 76.94C106.618 75.884 106.234 74.672 106.21 73.304H109.702C109.822 74.48 110.302 75.476 111.142 76.292C112.006 77.084 113.254 77.48 114.886 77.48C116.446 77.48 117.67 77.096 118.558 76.328C119.47 75.536 119.926 74.528 119.926 73.304C119.926 72.344 119.662 71.564 119.134 70.964C118.606 70.364 117.946 69.908 117.154 69.596C116.362 69.284 115.294 68.948 113.95 68.588C112.294 68.156 110.962 67.724 109.954 67.292C108.97 66.86 108.118 66.188 107.398 65.276C106.702 64.34 106.354 63.092 106.354 61.532C106.354 60.164 106.702 58.952 107.398 57.896C108.094 56.84 109.066 56.024 110.314 55.448C111.586 54.872 113.038 54.584 114.67 54.584C117.022 54.584 118.942 55.172 120.43 56.348C121.942 57.524 122.794 59.084 122.986 61.028H119.386C119.266 60.068 118.762 59.228 117.874 58.508C116.986 57.764 115.81 57.392 114.346 57.392C112.978 57.392 111.862 57.752 110.998 58.472C110.134 59.168 109.702 60.152 109.702 61.424C109.702 62.336 109.954 63.08 110.458 63.656C110.986 64.232 111.622 64.676 112.366 64.988C113.134 65.276 114.202 65.612 115.57 65.996C117.226 66.452 118.558 66.908 119.566 67.364C120.574 67.796 121.438 68.48 122.158 69.416C122.878 70.328 123.238 71.576 123.238 73.16C123.238 74.384 122.914 75.536 122.266 76.616C121.618 77.696 120.658 78.572 119.386 79.244C118.114 79.916 116.614 80.252 114.886 80.252ZM142.891 74.42H131.947L129.931 80H126.475L135.547 55.052H139.327L148.363 80H144.907L142.891 74.42ZM141.955 71.756L137.419 59.084L132.883 71.756H141.955ZM164.881 67.076C165.793 67.22 166.621 67.592 167.365 68.192C168.133 68.792 168.733 69.536 169.165 70.424C169.621 71.312 169.849 72.26 169.849 73.268C169.849 74.54 169.525 75.692 168.877 76.724C168.229 77.732 167.281 78.536 166.033 79.136C164.809 79.712 163.357 80 161.677 80H152.317V54.908H161.317C163.021 54.908 164.473 55.196 165.673 55.772C166.873 56.324 167.773 57.08 168.373 58.04C168.973 59 169.273 60.08 169.273 61.28C169.273 62.768 168.865 64.004 168.049 64.988C167.257 65.948 166.201 66.644 164.881 67.076ZM155.593 65.744H161.101C162.637 65.744 163.825 65.384 164.665 64.664C165.505 63.944 165.925 62.948 165.925 61.676C165.925 60.404 165.505 59.408 164.665 58.688C163.825 57.968 162.613 57.608 161.029 57.608H155.593V65.744ZM161.389 77.3C163.021 77.3 164.293 76.916 165.205 76.148C166.117 75.38 166.573 74.312 166.573 72.944C166.573 71.552 166.093 70.46 165.133 69.668C164.173 68.852 162.889 68.444 161.281 68.444H155.593V77.3H161.389ZM185.771 80.252C183.443 80.252 181.319 79.712 179.399 78.632C177.479 77.528 175.955 76.004 174.827 74.06C173.723 72.092 173.171 69.884 173.171 67.436C173.171 64.988 173.723 62.792 174.827 60.848C175.955 58.88 177.479 57.356 179.399 56.276C181.319 55.172 183.443 54.62 185.771 54.62C188.123 54.62 190.259 55.172 192.179 56.276C194.099 57.356 195.611 58.868 196.715 60.812C197.819 62.756 198.371 64.964 198.371 67.436C198.371 69.908 197.819 72.116 196.715 74.06C195.611 76.004 194.099 77.528 192.179 78.632C190.259 79.712 188.123 80.252 185.771 80.252ZM185.771 77.408C187.523 77.408 189.095 77 190.487 76.184C191.903 75.368 193.007 74.204 193.799 72.692C194.615 71.18 195.023 69.428 195.023 67.436C195.023 65.42 194.615 63.668 193.799 62.18C193.007 60.668 191.915 59.504 190.523 58.688C189.131 57.872 187.547 57.464 185.771 57.464C183.995 57.464 182.411 57.872 181.019 58.688C179.627 59.504 178.523 60.668 177.707 62.18C176.915 63.668 176.519 65.42 176.519 67.436C176.519 69.428 176.915 71.18 177.707 72.692C178.523 74.204 179.627 75.368 181.019 76.184C182.435 77 184.019 77.408 185.771 77.408ZM215.908 80L209.932 69.74H205.972V80H202.696V54.908H210.796C212.692 54.908 214.288 55.232 215.584 55.88C216.904 56.528 217.888 57.404 218.536 58.508C219.184 59.612 219.508 60.872 219.508 62.288C219.508 64.016 219.004 65.54 217.996 66.86C217.012 68.18 215.524 69.056 213.532 69.488L219.832 80H215.908ZM205.972 67.112H210.796C212.572 67.112 213.904 66.68 214.792 65.816C215.68 64.928 216.124 63.752 216.124 62.288C216.124 60.8 215.68 59.648 214.792 58.832C213.928 58.016 212.596 57.608 210.796 57.608H205.972V67.112Z" fill="#F80C02"/>
</svg>
