<svg width="40" height="40" viewBox="0 0 60 61" fill="none" xmlns="http://www.w3.org/2000/svg">
<path d="M10.6405 41.9223C7.84885 37.2123 6.87236 31.6453 7.89437 26.2664C8.91638 20.8875 11.8666 16.0666 16.1912 12.7087C20.5158 9.35082 25.9173 7.68693 31.3817 8.02939C36.8462 8.37184 41.9977 10.6971 45.8692 14.5686C49.7407 18.4401 52.066 23.5917 52.4084 29.0561C52.7509 34.5205 51.087 39.9221 47.7291 44.2466C44.3713 48.5712 39.5503 51.5214 34.1714 52.5435C28.7925 53.5655 23.2255 52.589 18.5155 49.7973V49.7973L10.7343 52.0004C10.4155 52.0937 10.0775 52.0994 9.75566 52.0171C9.43386 51.9348 9.14013 51.7674 8.90526 51.5326C8.67039 51.2977 8.50303 51.004 8.42071 50.6822C8.33839 50.3604 8.34416 50.0224 8.4374 49.7035L10.6405 41.9223Z" stroke="#669921" stroke-width="2" stroke-linecap="round" stroke-linejoin="round"/>
<path d="M35.6485 43.5626C33.1814 43.5687 30.7374 43.0874 28.4569 42.1461C26.1764 41.2048 24.1044 39.8222 22.3599 38.0777C20.6154 36.3332 19.2328 34.2612 18.2915 31.9807C17.3502 29.7002 16.8689 27.2562 16.8751 24.7891C16.8813 23.0527 17.5754 21.3895 18.8054 20.1639C20.0355 18.9382 21.7011 18.25 23.4376 18.2501V18.2501C23.724 18.2478 24.0059 18.3227 24.2533 18.4671C24.5008 18.6115 24.7048 18.8199 24.8438 19.0704L27.586 23.8516C27.7491 24.1423 27.8328 24.4707 27.8286 24.804C27.8245 25.1372 27.7328 25.4635 27.5626 25.7501L25.3594 29.4297C26.4879 31.9401 28.4975 33.9497 31.0079 35.0782L34.6876 32.875C34.9741 32.7048 35.3004 32.6131 35.6336 32.609C35.9669 32.6049 36.2953 32.6885 36.586 32.8516L41.3672 35.5938C41.6178 35.7328 41.8261 35.9368 41.9705 36.1843C42.1149 36.4318 42.1898 36.7136 42.1876 37.0001C42.1814 38.7346 41.4913 40.3967 40.2669 41.6254C39.0426 42.8541 37.383 43.5502 35.6485 43.5626V43.5626Z" stroke="#669921" stroke-width="2" stroke-linecap="round" stroke-linejoin="round"/>
</svg>
